<svg xmlns="http://www.w3.org/2000/svg" xmlns:xlink="http://www.w3.org/1999/xlink" width="24" height="24" viewBox="0 0 24 24" fill="none"><path   fill="rgba(79, 80, 82, 1)"  d="M7.00098 1.25L17.001 1.25C18.2436 1.25 19.251 2.25736 19.251 3.5L19.251 20.5C19.251 21.7426 18.2436 22.75 17.001 22.75L7.00098 22.75C5.75834 22.75 4.75098 21.7426 4.75098 20.5L4.75098 3.5C4.75098 2.25736 5.75834 1.25 7.00098 1.25ZM7.00098 2.75C6.58676 2.75 6.25098 3.08579 6.25098 3.5L6.25098 20.5C6.25098 20.9142 6.58676 21.25 7.00098 21.25L17.001 21.25C17.4152 21.25 17.751 20.9142 17.751 20.5L17.751 3.5C17.751 3.08579 17.4152 2.75 17.001 2.75L7.00098 2.75Z"></path><path    stroke-width="1.5" stroke-linejoin="round" stroke-linecap="round"  d="M10.999 5L12.999 5"></path><path   stroke-width="1.5" stroke-linejoin="round" stroke-linecap="round"  d="M10.001 19L14.001 19"></path></svg>