<svg xmlns="http://www.w3.org/2000/svg" xmlns:xlink="http://www.w3.org/1999/xlink" width="25" height="24" viewBox="0 0 25 24" fill="none">
<path  stroke-width="1.5" stroke-linejoin="round"   d="M16.7426 8.92743C16.7659 8.9287 16.7922 8.93014 16.8243 8.93171C16.2732 5.99545 13.3462 3.75 9.69546 3.75C5.65408 3.75 2.37793 6.50182 2.37793 9.89603C2.37793 11.7482 3.36371 13.4153 4.90627 14.5419C5.0302 14.631 5.11123 14.7771 5.11123 14.9426C5.11123 14.9971 5.09968 15.0468 5.08538 15.0992L5.02853 15.313C4.90943 15.7608 4.7636 16.3092 4.75575 16.3389C4.75197 16.3532 4.74769 16.3676 4.74337 16.3821C4.73009 16.4269 4.71652 16.4726 4.71652 16.5185C4.71652 16.6544 4.8256 16.7642 4.96035 16.7642C5.01352 16.7642 5.0566 16.7446 5.10115 16.7186L6.70347 15.7863C6.82374 15.7165 6.95116 15.6734 7.09177 15.6734C7.16675 15.6734 7.2388 15.6846 7.30682 15.7055C8.05427 15.9222 8.86038 16.0424 9.69546 16.0424C9.83039 16.0424 10.2293 16.0483 10.3624 16.0424M20.5164 18.3978C21.8019 17.4588 22.6232 16.0697 22.6232 14.5264C22.6232 11.6975 19.8932 9.40479 16.5252 9.40479C13.1576 9.40479 10.4272 11.6975 10.4272 14.5264C10.4272 17.3552 13.1576 19.6483 16.5252 19.6483C17.221 19.6483 17.8929 19.548 18.5159 19.3676C18.5725 19.3502 18.6326 19.3405 18.6952 19.3405C18.8121 19.3405 18.9185 19.3764 19.0189 19.4349L20.3536 20.2119C20.391 20.2331 20.4271 20.25 20.4713 20.25C20.5837 20.25 20.6746 20.1581 20.6746 20.0452C20.6746 20.0073 20.6634 19.9696 20.6525 19.9328C20.6487 19.9202 20.645 19.9077 20.6418 19.8953C20.6341 19.8663 20.4698 19.2481 20.367 18.8622C20.3552 18.8187 20.3455 18.7769 20.3455 18.7316C20.3455 18.5941 20.413 18.472 20.5164 18.3978Z"></path>
<path d="M13.7773 12.9288C13.7773 13.3683 14.131 13.7245 14.5671 13.7245C15.0033 13.7245 15.3568 13.3683 15.3568 12.9288C15.3568 12.4892 15.0033 12.1328 14.5671 12.1328C14.131 12.1328 13.7773 12.4892 13.7773 12.9288ZM17.9946 12.9288C17.9946 13.3683 18.3478 13.7245 18.784 13.7245C19.2202 13.7245 19.5738 13.3683 19.5738 12.9288C19.5738 12.4892 19.2202 12.1328 18.784 12.1328C18.3478 12.1328 17.9946 12.4892 17.9946 12.9288Z" fill-rule="evenodd"  fill="#4F5052" ></path>
<path d="M6.16309 7.78529C6.16309 8.28467 6.56491 8.68972 7.06087 8.68972C7.55606 8.68972 7.95788 8.28467 7.95788 7.78529C7.95788 7.28572 7.55606 6.88086 7.06087 6.88086C6.56491 6.88086 6.16309 7.28572 6.16309 7.78529Z"   fill="#4F5052" ></path><path d="M11.2236 7.78529C11.2236 8.28467 11.6254 8.68953 12.1209 8.68953C12.6165 8.68953 13.0183 8.28467 13.0183 7.78529C13.0183 7.28572 12.6165 6.88086 12.1209 6.88086C11.6254 6.88086 11.2236 7.28572 11.2236 7.78529Z"   fill="#4F5052" ></path></svg>
